<svg xmlns="http://www.w3.org/2000/svg" viewBox="0 0 256 256">
  <rect width="256" height="256" rx="40" fill="#2563eb"/>

  <!-- Column 1: "Today" — blue header, denser card stack -->
  <rect x="32" y="56" width="60" height="160" rx="8" fill="#ffffff"/>
  <rect x="40" y="64" width="44" height="8" rx="2" fill="#2563eb"/>
  <rect x="40" y="82" width="44" height="14" rx="2" fill="#bfdbfe"/>
  <rect x="40" y="102" width="44" height="14" rx="2" fill="#bfdbfe"/>
  <rect x="40" y="122" width="44" height="14" rx="2" fill="#bfdbfe"/>

  <!-- Column 2 -->
  <rect x="98" y="56" width="60" height="160" rx="8" fill="#ffffff"/>
  <rect x="106" y="64" width="44" height="8" rx="2" fill="#94a3b8"/>
  <rect x="106" y="82" width="44" height="14" rx="2" fill="#e2e8f0"/>
  <rect x="106" y="102" width="44" height="14" rx="2" fill="#e2e8f0"/>

  <!-- Column 3 -->
  <rect x="164" y="56" width="60" height="160" rx="8" fill="#ffffff"/>
  <rect x="172" y="64" width="44" height="8" rx="2" fill="#94a3b8"/>
  <rect x="172" y="82" width="44" height="14" rx="2" fill="#e2e8f0"/>
  <rect x="172" y="102" width="44" height="14" rx="2" fill="#e2e8f0"/>
  <rect x="172" y="122" width="44" height="14" rx="2" fill="#e2e8f0"/>
</svg>
